<?xml version="1.0" encoding="UTF-8" standalone="no"?>
<!-- Created with Inkscape (http://www.inkscape.org/) -->

<svg
   xmlns:dc="http://purl.org/dc/elements/1.1/"
   xmlns:cc="http://creativecommons.org/ns#"
   xmlns:rdf="http://www.w3.org/1999/02/22-rdf-syntax-ns#"
   xmlns:svg="http://www.w3.org/2000/svg"
   xmlns="http://www.w3.org/2000/svg"
   xmlns:sodipodi="http://sodipodi.sourceforge.net/DTD/sodipodi-0.dtd"
   xmlns:inkscape="http://www.inkscape.org/namespaces/inkscape"
   id="svg2985"
   version="1.1"
   inkscape:version="0.48.4 r9939"
   width="100%"
   height="100%"
   viewBox="0 0 1110 286"
   preserveAspectRatio="xMinYMin none"
   sodipodi:docname="logotipo_bemyear.svg">
  <metadata
     id="metadata2991">
    <rdf:RDF>
      <cc:Work
         rdf:about="">
        <dc:format>image/svg+xml</dc:format>
        <dc:type
           rdf:resource="http://purl.org/dc/dcmitype/StillImage" />
        <dc:title />
      </cc:Work>
    </rdf:RDF>
  </metadata>
  <defs
     id="defs2989" />
  <sodipodi:namedview
     pagecolor="#ffffff"
     bordercolor="#666666"
     borderopacity="1"
     objecttolerance="10"
     gridtolerance="10"
     guidetolerance="10"
     inkscape:pageopacity="0"
     inkscape:pageshadow="2"
     inkscape:window-width="1366"
     inkscape:window-height="715"
     id="namedview2987"
     showgrid="false"
     inkscape:zoom="0.7071068"
     inkscape:cx="560.01957"
     inkscape:cy="6.6441931"
     inkscape:window-x="-8"
     inkscape:window-y="-8"
     inkscape:window-maximized="1"
     inkscape:current-layer="svg2985" />
  <g
     transform="translate(10.2812,10.156256)"
     style="font-size:209.77403259px;font-style:normal;font-variant:normal;font-weight:normal;font-stretch:normal;line-height:125%;letter-spacing:0px;word-spacing:0px;opacity:0.26938776;fill:#000000;fill-opacity:1;stroke:none;font-family:Arial;-inkscape-font-specification:Arial"
     id="text3773-4">
    <path
       inkscape:connector-curvature="0"
       id="path4038-8"
       style="letter-spacing:-11.78880501px;fill:#000000;fill-opacity:1"
       d="m 317.59375,14.6875 0,150.15625 57.25,0 c 9.55993,0 17.62907,-0.827 24.21875,-2.5 6.58947,-1.673 12.0671,-4.15977 16.4375,-7.4375 4.37017,-3.2777 8.0607,-7.92543 11.03125,-13.96875 2.97031,-6.04326 4.43738,-12.59152 4.4375,-19.625 -1.2e-4,-8.74053 -2.43019,-16.33107 -7.3125,-22.75 -4.88255,-6.418795 -11.8556,-10.930526 -20.9375,-13.59375 7.03333,-3.482493 12.29856,-8.08219 15.78125,-13.75 3.48246,-5.667624 5.21863,-11.706028 5.21875,-18.125 -1.2e-4,-6.896749 -1.97993,-13.495936 -5.90625,-19.8125 -3.92654,-6.3163 -9.35035,-10.992389 -16.28125,-14.03125 -6.93111,-3.038571 -16.12181,-4.562349 -27.59375,-4.5625 l -56.34375,0 z m 233.53125,0 0,150.15625 19.125,0 0,-127.8125 43.4375,127.8125 17.9375,0 43.625,-125.6875 0,125.6875 19.15625,0 0,-150.15625 -26.71875,0 -35.96875,104.46875 c -3.61924,10.58434 -6.29295,18.63091 -8,24.09375 -1.50238,-4.91655 -3.87862,-12.34853 -7.15625,-22.25 l -35.53125,-106.3125 -29.90625,0 z m 257.28125,0 0,150.15625 112.03125,0 0,-17.71875 -92.1875,0 0,-51.09375 83.09375,0 0,-17.625 -83.09375,0 0,-46 88.71875,0 0,-17.71875 -108.5625,0 z m -470.9375,17.71875 30,0 c 10.78909,1.33e-4 18.40509,0.694022 22.84375,2.09375 4.43849,1.399988 7.8599,3.991514 10.25,7.78125 2.38991,3.789982 3.59365,8.202749 3.59375,13.1875 -10e-5,5.258112 -1.28313,9.611273 -3.84375,13.09375 -2.56081,3.482669 -6.38444,5.966552 -11.4375,7.46875 -3.82409,1.160946 -10.1287,1.750087 -18.9375,1.75 l -32.46875,0 0,-45.375 z M 489.0625,53.625 c -15.02292,1.11e-4 -27.26409,5.050055 -36.6875,15.15625 -9.42346,10.106387 -14.125,24.293218 -14.125,42.59375 0,17.68606 4.64773,31.41976 13.96875,41.21875 9.32099,9.79902 21.93311,14.71875 37.84375,14.71875 12.6328,0 23.03016,-3.07302 31.15625,-9.21875 8.12592,-6.14571 13.68282,-14.77564 16.6875,-25.90625 l -19.0625,-2.375 c -2.7998,7.78461 -6.56382,13.44916 -11.34375,17 -4.78008,3.55088 -10.55227,5.34376 -17.3125,5.34375 -9.08207,1e-5 -16.6726,-3.18066 -22.75,-9.53125 -6.07747,-6.35056 -9.47342,-15.5187 -10.15625,-27.46875 l 81.125,0 c 0.0682,-2.1851 0.12489,-3.81362 0.125,-4.90625 C 538.53114,92.290902 533.90598,78.37028 524.6875,68.46875 515.46883,58.567413 503.60731,53.625111 489.0625,53.625 z m 490.875,0 c -9.35521,1.11e-4 -17.55457,1.251892 -24.65625,3.8125 -7.10176,2.560823 -12.5568,6.222986 -16.3125,10.96875 -3.75574,4.745956 -6.4549,10.971288 -8.09375,18.6875 l 18.03125,2.46875 c 1.98025,-7.716215 5.05617,-13.086193 9.1875,-16.125 4.13125,-3.038624 10.51516,-4.562404 19.1875,-4.5625 9.28681,9.6e-5 16.28821,2.084659 21,6.25 3.48245,3.072949 5.21865,8.363641 5.21875,15.875 -10e-5,0.682931 -0.026,2.285996 -0.094,4.8125 -7.03351,2.458356 -17.98871,4.56838 -32.87495,6.34375 -7.30663,0.88778 -12.78714,1.82531 -16.40625,2.78125 -4.91661,1.36577 -9.32359,3.36816 -13.25,6.03125 -3.92645,2.6632 -7.10712,6.18937 -9.53125,10.59375 -2.42416,4.40448 -3.62501,9.26749 -3.625,14.59375 -1e-5,9.08203 3.20612,16.56783 9.625,22.40625 6.41884,5.83844 15.61245,8.75 27.5625,8.75 7.23824,0 13.996,-1.20374 20.3125,-3.59375 6.31637,-2.39 12.89008,-6.47695 19.71875,-12.28125 0.5462,5.12144 1.7754,9.58225 3.6875,13.40625 l 19.25,0 c -2.3218,-4.16543 -3.871,-8.52149 -4.6562,-13.0625 -0.7854,-4.54099 -1.1564,-15.36023 -1.1563,-32.5 l 0,-24.59375 c -1e-4,-8.19422 -0.323,-13.858768 -0.9375,-17 -1.0926,-5.053058 -2.9873,-9.250541 -5.7188,-12.5625 -2.7314,-3.311759 -7.0082,-6.064748 -12.8124,-8.25 -5.80439,-2.185036 -13.3695,-3.249889 -22.6563,-3.25 z m 98.9375,0 c -4.3021,1.11e-4 -8.2276,1.22932 -11.8125,3.6875 -3.5851,2.458394 -7.4851,7.533803 -11.7187,15.25 l 0,-16.5 -16.5938,0 0,108.78125 18.4375,0 0,-56.9375 c 0,-7.78452 1.0139,-14.975739 3.0625,-21.53125 1.3657,-4.301924 3.6343,-7.638268 6.8438,-10.0625 3.2094,-2.424056 6.846,-3.656158 10.875,-3.65625 4.5069,9.2e-5 9.0243,1.336944 13.5312,4 l 6.3438,-17.09375 c -6.4189,-3.960468 -12.7548,-5.937389 -18.9688,-5.9375 z m -376.78125,2.4375 41.28125,109 c -0.75118,1.98028 -1.31486,3.47571 -1.65625,4.5 -2.5949,7.30657 -4.46418,11.87502 -5.625,13.71875 -1.57061,2.45827 -3.60425,4.38426 -6.0625,5.75 -2.45832,1.36569 -5.71538,2.03123 -9.8125,2.03125 -3.00459,-2e-5 -6.53365,-0.53246 -10.5625,-1.625 l 2.0625,17.3125 c 4.37027,1.50224 8.32412,2.24996 11.875,2.25 5.87255,-4e-5 10.92249,-1.41618 15.15625,-4.25 4.23368,-2.8339 8.00348,-7.29759 11.28125,-13.375 2.45824,-4.50688 5.90512,-12.7375 10.34375,-24.6875 l 41.375,-110.625 -18.4375,0 -23.25,63.40625 c -2.93635,8.05777 -5.47695,16.31383 -7.59375,24.78125 -2.32177,-8.80884 -4.93876,-17.19802 -7.875,-25.1875 l -22.65625,-63 -19.84375,0 z M 489.25,68.78125 c 9.35509,9.6e-5 16.97109,3.554617 22.84375,10.65625 3.82392,4.57523 6.14923,11.412271 6.96875,20.5625 l -60.75,0 c 0.61455,-9.491658 3.82357,-17.050945 9.59375,-22.71875 5.77011,-5.667629 12.87626,-8.499904 21.34375,-8.5 z M 337.46875,95.5 l 34.71875,0 c 9.55993,6.9e-5 16.88137,0.827066 21.96875,2.5 5.08719,1.673067 9.0694,4.58752 11.9375,8.71875 2.8679,4.13134 4.31239,8.99436 4.3125,14.59375 -1.1e-4,4.78005 -0.98857,9.00299 -2.96875,12.65625 -1.98039,3.65332 -4.52099,6.43177 -7.59375,8.34375 -3.07295,1.91202 -6.89369,3.27434 -11.46875,4.09375 -2.59494,0.47802 -7.11246,0.71877 -13.53125,0.71875 l -37.375,0 0,-51.625 z m 665.93745,14.75 0,6.75 c 0,8.12605 -0.9885,14.27209 -2.9687,18.4375 -2.59491,5.3946 -6.65642,9.67427 -12.1875,12.78125 -5.53122,3.10702 -11.83583,4.65626 -18.9375,4.65625 -7.17005,1e-5 -12.62221,-1.65977 -16.34375,-4.9375 -3.72161,-3.2777 -5.59378,-7.36464 -5.59375,-12.28125 -3e-5,-3.2094 0.85533,-6.12096 2.5625,-8.75 1.70712,-2.62897 4.14007,-4.63424 7.28125,-6 3.14111,-1.36567 8.48273,-2.59488 16.0625,-3.6875 13.38396,-1.91195 23.43287,-4.23727 30.12495,-6.96875 z" />
  </g>
  <g
     style="font-size:209.77403259000002000px;font-style:normal;font-variant:normal;font-weight:normal;font-stretch:normal;line-height:125%;letter-spacing:0px;word-spacing:0px;fill:#ffffff;fill-opacity:1;stroke:none;font-family:Arial;-inkscape-font-specification:Arial"
     id="text3773">
    <path
       id="path4038"
       style="letter-spacing:-11.78880501000000100px;fill:#ffffff;fill-opacity:1"
       d="m 317.59375,14.6875 0,150.15625 57.25,0 c 9.55993,0 17.62907,-0.827 24.21875,-2.5 6.58947,-1.673 12.0671,-4.15977 16.4375,-7.4375 4.37017,-3.2777 8.0607,-7.92543 11.03125,-13.96875 2.97031,-6.04326 4.43738,-12.59152 4.4375,-19.625 -1.2e-4,-8.74053 -2.43019,-16.33107 -7.3125,-22.75 -4.88255,-6.418795 -11.8556,-10.930526 -20.9375,-13.59375 7.03333,-3.482493 12.29856,-8.08219 15.78125,-13.75 3.48246,-5.667624 5.21863,-11.706028 5.21875,-18.125 -1.2e-4,-6.896749 -1.97993,-13.495936 -5.90625,-19.8125 -3.92654,-6.3163 -9.35035,-10.992389 -16.28125,-14.03125 -6.93111,-3.038571 -16.12181,-4.562349 -27.59375,-4.5625 l -56.34375,0 z m 233.53125,0 0,150.15625 19.125,0 0,-127.8125 43.4375,127.8125 17.9375,0 43.625,-125.6875 0,125.6875 19.15625,0 0,-150.15625 -26.71875,0 -35.96875,104.46875 c -3.61924,10.58434 -6.29295,18.63091 -8,24.09375 -1.50238,-4.91655 -3.87862,-12.34853 -7.15625,-22.25 l -35.53125,-106.3125 -29.90625,0 z m 257.28125,0 0,150.15625 112.03125,0 0,-17.71875 -92.1875,0 0,-51.09375 83.09375,0 0,-17.625 -83.09375,0 0,-46 88.71875,0 0,-17.71875 -108.5625,0 z m -470.9375,17.71875 30,0 c 10.78909,1.33e-4 18.40509,0.694022 22.84375,2.09375 4.43849,1.399988 7.8599,3.991514 10.25,7.78125 2.38991,3.789982 3.59365,8.202749 3.59375,13.1875 -10e-5,5.258112 -1.28313,9.611273 -3.84375,13.09375 -2.56081,3.482669 -6.38444,5.966552 -11.4375,7.46875 -3.82409,1.160946 -10.1287,1.750087 -18.9375,1.75 l -32.46875,0 0,-45.375 z M 489.0625,53.625 c -15.02292,1.11e-4 -27.26409,5.050055 -36.6875,15.15625 -9.42346,10.106387 -14.125,24.293218 -14.125,42.59375 0,17.68606 4.64773,31.41976 13.96875,41.21875 9.32099,9.79902 21.93311,14.71875 37.84375,14.71875 12.6328,0 23.03016,-3.07302 31.15625,-9.21875 8.12592,-6.14571 13.68282,-14.77564 16.6875,-25.90625 l -19.0625,-2.375 c -2.7998,7.78461 -6.56382,13.44916 -11.34375,17 -4.78008,3.55088 -10.55227,5.34376 -17.3125,5.34375 -9.08207,1e-5 -16.6726,-3.18066 -22.75,-9.53125 -6.07747,-6.35056 -9.47342,-15.5187 -10.15625,-27.46875 l 81.125,0 c 0.0682,-2.1851 0.12489,-3.81362 0.125,-4.90625 C 538.53114,92.290902 533.90598,78.37028 524.6875,68.46875 515.46883,58.567413 503.60731,53.625111 489.0625,53.625 z m 490.875,0 c -9.35521,1.11e-4 -17.55457,1.251892 -24.65625,3.8125 -7.10176,2.560823 -12.5568,6.222986 -16.3125,10.96875 -3.75574,4.745956 -6.4549,10.971288 -8.09375,18.6875 l 18.03125,2.46875 c 1.98025,-7.716215 5.05617,-13.086193 9.1875,-16.125 4.13125,-3.038624 10.51516,-4.562404 19.1875,-4.5625 9.28681,9.6e-5 16.28821,2.084659 21,6.25 3.48245,3.072949 5.21865,8.363641 5.21875,15.875 -10e-5,0.682931 -0.026,2.285996 -0.094,4.8125 -7.03351,2.458356 -17.98871,4.56838 -32.87495,6.34375 -7.30663,0.88778 -12.78714,1.82531 -16.40625,2.78125 -4.91661,1.36577 -9.32359,3.36816 -13.25,6.03125 -3.92645,2.6632 -7.10712,6.18937 -9.53125,10.59375 -2.42416,4.40448 -3.62501,9.26749 -3.625,14.59375 -1e-5,9.08203 3.20612,16.56783 9.625,22.40625 6.41884,5.83844 15.61245,8.75 27.5625,8.75 7.23824,0 13.996,-1.20374 20.3125,-3.59375 6.31637,-2.39 12.89008,-6.47695 19.71875,-12.28125 0.5462,5.12144 1.7754,9.58225 3.6875,13.40625 l 19.25,0 c -2.3218,-4.16543 -3.871,-8.52149 -4.6562,-13.0625 -0.7854,-4.54099 -1.1564,-15.36023 -1.1563,-32.5 l 0,-24.59375 c -1e-4,-8.19422 -0.323,-13.858768 -0.9375,-17 -1.0926,-5.053058 -2.9873,-9.250541 -5.7188,-12.5625 -2.7314,-3.311759 -7.0082,-6.064748 -12.8124,-8.25 -5.80439,-2.185036 -13.3695,-3.249889 -22.6563,-3.25 z m 98.9375,0 c -4.3021,1.11e-4 -8.2276,1.22932 -11.8125,3.6875 -3.5851,2.458394 -7.4851,7.533803 -11.7187,15.25 l 0,-16.5 -16.5938,0 0,108.78125 18.4375,0 0,-56.9375 c 0,-7.78452 1.0139,-14.975739 3.0625,-21.53125 1.3657,-4.301924 3.6343,-7.638268 6.8438,-10.0625 3.2094,-2.424056 6.846,-3.656158 10.875,-3.65625 4.5069,9.2e-5 9.0243,1.336944 13.5312,4 l 6.3438,-17.09375 c -6.4189,-3.960468 -12.7548,-5.937389 -18.9688,-5.9375 z m -376.78125,2.4375 41.28125,109 c -0.75118,1.98028 -1.31486,3.47571 -1.65625,4.5 -2.5949,7.30657 -4.46418,11.87502 -5.625,13.71875 -1.57061,2.45827 -3.60425,4.38426 -6.0625,5.75 -2.45832,1.36569 -5.71538,2.03123 -9.8125,2.03125 -3.00459,-2e-5 -6.53365,-0.53246 -10.5625,-1.625 l 2.0625,17.3125 c 4.37027,1.50224 8.32412,2.24996 11.875,2.25 5.87255,-4e-5 10.92249,-1.41618 15.15625,-4.25 4.23368,-2.8339 8.00348,-7.29759 11.28125,-13.375 2.45824,-4.50688 5.90512,-12.7375 10.34375,-24.6875 l 41.375,-110.625 -18.4375,0 -23.25,63.40625 c -2.93635,8.05777 -5.47695,16.31383 -7.59375,24.78125 -2.32177,-8.80884 -4.93876,-17.19802 -7.875,-25.1875 l -22.65625,-63 -19.84375,0 z M 489.25,68.78125 c 9.35509,9.6e-5 16.97109,3.554617 22.84375,10.65625 3.82392,4.57523 6.14923,11.412271 6.96875,20.5625 l -60.75,0 c 0.61455,-9.491658 3.82357,-17.050945 9.59375,-22.71875 5.77011,-5.667629 12.87626,-8.499904 21.34375,-8.5 z M 337.46875,95.5 l 34.71875,0 c 9.55993,6.9e-5 16.88137,0.827066 21.96875,2.5 5.08719,1.673067 9.0694,4.58752 11.9375,8.71875 2.8679,4.13134 4.31239,8.99436 4.3125,14.59375 -1.1e-4,4.78005 -0.98857,9.00299 -2.96875,12.65625 -1.98039,3.65332 -4.52099,6.43177 -7.59375,8.34375 -3.07295,1.91202 -6.89369,3.27434 -11.46875,4.09375 -2.59494,0.47802 -7.11246,0.71877 -13.53125,0.71875 l -37.375,0 0,-51.625 z m 665.93745,14.75 0,6.75 c 0,8.12605 -0.9885,14.27209 -2.9687,18.4375 -2.59491,5.3946 -6.65642,9.67427 -12.1875,12.78125 -5.53122,3.10702 -11.83583,4.65626 -18.9375,4.65625 -7.17005,1e-5 -12.62221,-1.65977 -16.34375,-4.9375 -3.72161,-3.2777 -5.59378,-7.36464 -5.59375,-12.28125 -3e-5,-3.2094 0.85533,-6.12096 2.5625,-8.75 1.70712,-2.62897 4.14007,-4.63424 7.28125,-6 3.14111,-1.36567 8.48273,-2.59488 16.0625,-3.6875 13.38396,-1.91195 23.43287,-4.23727 30.12495,-6.96875 z" />
  </g>
  <path
     style="fill:#f1f1f1;fill-opacity:1;stroke:#000000;stroke-width:1px;stroke-linecap:butt;stroke-linejoin:miter;stroke-opacity:1"
     d="M 31.112697,7.3999354 C 12.727922,15.17811 6.3639609,38.512633 6.3639609,38.512633 L 5.6568541,243.57359 c 0,0 0,16.26346 7.7781739,23.33453 7.778175,7.07107 17.67767,14.14213 28.284271,14.14213 10.606601,0 203.646751,-0.7071 203.646751,-0.7071 0,0 16.26345,-3.53554 24.04163,-12.72793 7.77817,-9.19238 11.3137,-21.92031 11.3137,-21.92031 l -0.7071,-206.47517 c 0,0 -0.70711,-14.849242 -11.31371,-23.334523 C 258.09397,7.3999356 246.78026,5.2786153 246.78026,5.2786153 z"
     id="path3771"
     inkscape:connector-curvature="0"
     sodipodi:nodetypes="cccsscsccscc" />
  <path
     style="fill:#208299;fill-opacity:1"
     d="M 31.76195,284.05814 C 16.932336,279.31749 5.6069723,267.10642 1.532909,251.46504 -0.77616275,242.59991 -0.77616275,43.400088 1.532909,34.534962 5.6522317,18.719815 17.009734,6.5883639 32.090956,1.8945599 c 9.455686,-2.9429404 212.362404,-2.9429404 221.818084,0 15.08123,4.693804 26.43873,16.8252551 30.55805,32.6404021 2.30907,8.865126 2.30907,208.064948 0,216.930078 -4.11932,15.81515 -15.47682,27.9466 -30.55805,32.6404 -9.28397,2.8895 -213.096002,2.8461 -222.14709,-0.0473 z m 220.6654,-10.79479 c 11.02059,-4.15855 19.03183,-13.25017 22.11874,-25.10163 2.17009,-8.33151 2.17009,-201.991926 0,-210.323442 C 271.38046,25.684588 262.69616,16.134659 251.46243,12.453709 245.70422,10.566917 241.98922,10.5 143,10.5 44.01078,10.5 40.295778,10.566917 34.537566,12.453709 23.303844,16.134659 14.619539,25.684588 11.453905,37.838278 9.6714891,44.681436 9.2564019,236.80604 11.004123,246.02174 c 2.95669,15.59056 14.34586,26.58413 29.981277,28.93986 3.03303,0.45698 50.5146,0.76506 105.5146,0.68463 l 100,-0.14623 5.92735,-2.23665 z M 71.247668,251.18425 C 60.081286,247.1906 54.207067,235.26239 56.875466,222 l 0.905403,-4.5 0.109565,4.0685 c 0.582189,21.6184 18.092275,31.39265 45.609566,25.45958 13.08964,-2.8223 28.07746,-5.56824 37.86065,-6.93652 31.84985,-4.45452 59.42965,-29.59785 81.37512,-74.18623 22.8809,-46.489 22.92355,-78.023288 0.13847,-102.380611 -27.53377,-29.433695 -64.61071,-38.348099 -92.21459,-22.171147 -16.0781,9.422392 -28.62449,26.293994 -37.289349,50.144389 -4.171381,11.481899 -4.378652,9.196769 -0.261164,-2.879274 18.453083,-54.120448 55.414483,-73.3789 102.046653,-53.17062 63.85626,27.672422 66.49011,89.422323 7.17572,168.232683 -19.41669,25.79873 -34.03516,34.64736 -65.07342,39.38923 -7.28304,1.11266 -19.65804,3.62547 -27.5,5.58401 -17.965591,4.48694 -30.700047,5.32363 -38.510422,2.53026 z m 91.439122,-39.78772 c 15.5913,-10.53454 31.21902,-29.28056 39.77185,-47.70777 C 225.53826,113.96331 215.98054,75.016612 177.57841,62.30442 165.5219,58.313374 142.26104,58.204969 133.95437,62.101113 117.93352,69.615503 111.63668,83.39835 111.6144,111 c -0.0136,16.79733 -1.06285,16.65801 -3.74948,-0.49784 -6.05291,-38.651797 27.71809,-72.064581 63.67498,-62.999573 31.72634,7.998452 52.5121,32.691833 52.43846,62.296633 -0.0868,34.89269 -32.53712,88.76075 -62.68852,104.06393 -6.46415,3.28085 -6.0642,2.57464 1.39695,-2.46662 z M 59.760903,195.54603 c -0.48656,-6.07047 -1.362534,-9.35973 -3.699214,-13.89046 -1.683929,-3.26508 -3.057293,-7.33579 -3.05192,-9.04603 C 53.019125,169.63145 57.292088,159 58.479675,159 c 0.314427,0 -0.179156,1.45197 -1.096852,3.2266 -2.418307,4.67648 -2.141304,12.37348 0.639989,17.78321 1.59745,3.10711 2.447158,6.80952 2.758594,12.01996 0.620298,10.3778 -0.234473,13.32301 -1.020503,3.51626 z M 84.75,195.9199 c -4.096346,-2.3859 -2.038073,-11.24033 5.772815,-24.83391 7.789119,-13.5557 7.99001,-22.07482 0.711455,-30.17032 l -4.499845,-5.00491 3.684649,2.17399 c 10.191206,6.01296 11.505756,18.96651 3.203525,31.56759 -7.828022,11.88134 -1.651148,25.1565 9.780501,21.01998 6.56837,-2.37675 9.39222,-2.83613 22.28495,-3.62522 22.84947,-1.39848 35.11738,-11.92843 36.83479,-31.6165 1.01774,-11.66714 -1.0663,-15.10605 -23.85613,-39.36545 -5.59169,-5.95226 -11.43017,-13.12694 -12.9744,-15.94372 -3.38392,-6.172529 -2.98717,-6.676493 0.77753,-0.987646 4.24526,6.415026 10.37954,12.694516 18.03016,18.456956 18.79385,14.15553 25.46895,24.78688 24.21886,38.57309 -1.53604,16.93974 -18.86273,31.81479 -37.10322,31.85331 -8.75973,0.0185 -18.2389,2.16892 -28.11564,6.37827 -6.344812,2.70407 -15.453285,3.44465 -18.75,1.52449 z"
     id="path3013"
     inkscape:connector-curvature="0" />
  <g
     style="font-size:40px;font-style:normal;font-weight:normal;line-height:125%;letter-spacing:0px;word-spacing:0px;opacity:0.27346939;fill:#000000;fill-opacity:1;stroke:none;font-family:Sans"
     id="text3798-4">
    <path
       id="path4167"
       style="font-variant:normal;font-stretch:normal;letter-spacing:6.76000214px;font-family:Arial;-inkscape-font-specification:Arial"
       d="m 1098.8193,270.95895 0,-4.0039 4.0039,0 0,4.0039 z m -16.4865,-2.55859 c -1.3021,1.10677 -2.5554,1.88802 -3.7598,2.34375 -1.2044,0.45573 -2.4968,0.68359 -3.877,0.68359 -2.2786,0 -4.0299,-0.55664 -5.2539,-1.66992 -1.2239,-1.11328 -1.8359,-2.5358 -1.8359,-4.26758 0,-1.01561 0.2311,-1.94335 0.6934,-2.7832 0.4622,-0.83983 1.0677,-1.51366 1.8164,-2.02148 0.7487,-0.50781 1.5918,-0.89192 2.5293,-1.15235 0.6901,-0.18228 1.7317,-0.35806 3.125,-0.52734 2.8385,-0.33853 4.9283,-0.74218 6.2695,-1.21094 0.013,-0.48176 0.019,-0.78775 0.019,-0.91797 0,-1.43227 -0.332,-2.44139 -0.9961,-3.02734 -0.8984,-0.79425 -2.2331,-1.19139 -4.0039,-1.19141 -1.6536,2e-5 -2.8743,0.28973 -3.6621,0.86914 -0.7878,0.57945 -1.3704,1.60484 -1.748,3.07618 l -3.4375,-0.46875 c 0.3125,-1.47134 0.8268,-2.65949 1.5429,-3.56446 0.7162,-0.90493 1.7513,-1.60154 3.1055,-2.08984 1.3542,-0.48826 2.9232,-0.7324 4.707,-0.73242 1.7709,2e-5 3.2097,0.20835 4.3164,0.625 1.1068,0.41668 1.9206,0.94077 2.4415,1.57226 0.5208,0.63153 0.8853,1.42906 1.0937,2.39258 0.1172,0.59897 0.1758,1.6797 0.1758,3.24219 l 0,4.6875 c 0,3.26823 0.075,5.33529 0.2246,6.20117 0.1497,0.86589 0.4459,1.69596 0.8887,2.49023 l -3.6719,0 c -0.3646,-0.72916 -0.599,-1.58203 -0.7031,-2.55859 z m -0.293,-7.85156 c -1.2761,0.52084 -3.1901,0.96355 -5.7422,1.32812 -1.4453,0.20834 -2.4674,0.44272 -3.0664,0.70313 -0.599,0.26042 -1.0612,0.64128 -1.3867,1.14258 -0.3255,0.5013 -0.4883,1.05794 -0.4883,1.66992 0,0.9375 0.3548,1.71875 1.0645,2.34375 0.7096,0.625 1.748,0.9375 3.1152,0.9375 1.3541,0 2.5586,-0.29622 3.6133,-0.88867 1.0546,-0.59245 1.8294,-1.40299 2.3242,-2.43164 0.3776,-0.79427 0.5664,-1.96614 0.5664,-3.51563 z m -26.467,2.8125 3.457,0.44922 c -0.3776,2.38281 -1.3444,4.24805 -2.9004,5.5957 -1.556,1.34766 -3.4668,2.02148 -5.7324,2.02148 -2.8386,0 -5.1205,-0.92773 -6.8457,-2.7832 -1.7253,-1.85546 -2.5879,-4.51497 -2.5879,-7.97851 0,-2.23958 0.3711,-4.19921 1.1133,-5.87891 0.7421,-1.67967 1.8717,-2.93944 3.3886,-3.7793 1.517,-0.83982 3.1673,-1.25974 4.9512,-1.25976 2.2526,2e-5 4.095,0.56968 5.5273,1.70898 1.4323,1.13934 2.3503,2.75718 2.754,4.85352 l -3.418,0.52734 c -0.3256,-1.39321 -0.9017,-2.44139 -1.7285,-3.14453 -0.8269,-0.70311 -1.8262,-1.05467 -2.9981,-1.05469 -1.7708,2e-5 -3.2096,0.63478 -4.3164,1.9043 -1.1068,1.26954 -1.6601,3.27801 -1.6601,6.02539 0,2.78646 0.5338,4.8112 1.6015,6.07422 1.0677,1.26302 2.461,1.89453 4.1797,1.89453 1.3802,0 2.5325,-0.42318 3.457,-1.26953 0.9245,-0.84635 1.5104,-2.14843 1.7579,-3.90625 z m -29.1819,-16.99219 0,-4.04297 3.5156,0 0,4.04297 z m 0,24.58984 0,-20.74218 3.5156,0 0,20.74218 z m -17.0335,0 0,-18.00781 -3.1054,0 0,-2.73437 3.1054,0 0,-2.20703 c 0,-1.39321 0.1237,-2.42836 0.3711,-3.10547 0.3386,-0.91144 0.9343,-1.65037 1.7871,-2.2168 0.8529,-0.56638 2.0475,-0.84958 3.584,-0.84961 0.9896,3e-5 2.0833,0.11722 3.2813,0.35156 l -0.5274,3.06641 c -0.7292,-0.13018 -1.4193,-0.19529 -2.0703,-0.19531 -1.0677,2e-5 -1.8229,0.22789 -2.2656,0.68359 -0.4427,0.45575 -0.6641,1.30862 -0.6641,2.55859 l 0,1.91407 4.043,0 0,2.73437 -4.043,0 0,18.00781 z m -16.48655,-24.58984 0,-4.04297 3.51562,0 0,4.04297 z m 0,24.58984 0,-20.74218 3.51562,0 0,20.74218 z m -10.19745,-3.14453 0.50781,3.10547 c -0.98959,0.20833 -1.87501,0.3125 -2.65625,0.3125 -1.27605,0 -2.26563,-0.20182 -2.96875,-0.60547 -0.70313,-0.40364 -1.19792,-0.93424 -1.48437,-1.59179 -0.28646,-0.65755 -0.42969,-2.04102 -0.42969,-4.15039 l 0,-11.9336 -2.57812,0 0,-2.73437 2.57812,0 0,-5.13672 3.49609,-2.10938 0,7.2461 3.53516,0 0,2.73437 -3.53516,0 0,12.12891 c 0,1.00261 0.0619,1.64714 0.18555,1.93359 0.12369,0.28646 0.32552,0.51433 0.60547,0.6836 0.27994,0.16927 0.68033,0.2539 1.20117,0.2539 0.39062,0 0.90494,-0.0456 1.54297,-0.13672 z m -36.70145,3.14453 0,-20.74218 3.16407,0 0,2.94922 c 1.52343,-2.27863 3.72395,-3.41795 6.60156,-3.41797 1.24999,2e-5 2.39907,0.22463 3.44726,0.67382 1.04817,0.44924 1.83267,1.03844 2.35352,1.76758 0.52082,0.72919 0.8854,1.59507 1.09375,2.59766 0.13019,0.65106 0.19529,1.79038 0.19531,3.41797 l 0,12.7539 -3.51562,0 0,-12.61718 c -2e-5,-1.43228 -0.13674,-2.50324 -0.41016,-3.21289 -0.27345,-0.70962 -0.75848,-1.27603 -1.45508,-1.69922 -0.69662,-0.42316 -1.51368,-0.63475 -2.45117,-0.63477 -1.4974,2e-5 -2.78972,0.47528 -3.87695,1.42578 -1.08725,0.95054 -1.63087,2.75392 -1.63086,5.41016 l 0,11.32812 z m -14.82638,-6.67968 3.63281,0.44922 c -0.57294,2.1224 -1.63413,3.76953 -3.18359,4.9414 -1.5495,1.17188 -3.52866,1.75781 -5.9375,1.75781 -3.03386,0 -5.43946,-0.93424 -7.2168,-2.80273 -1.77735,-1.86849 -2.66602,-4.48893 -2.66601,-7.86133 -1e-5,-3.48957 0.89843,-6.1979 2.69531,-8.125 1.79687,-1.92706 4.12759,-2.8906 6.99219,-2.89062 2.77342,2e-5 5.03904,0.94403 6.79687,2.83203 1.75779,1.88803 2.6367,4.54428 2.63672,7.96875 -2e-5,0.20834 -0.007,0.52084 -0.0195,0.9375 l -15.46875,0 c 0.1302,2.27865 0.77473,4.02344 1.93359,5.23437 1.15885,1.21094 2.60416,1.81641 4.33594,1.81641 1.28905,0 2.38931,-0.33854 3.30078,-1.01563 0.91144,-0.67708 1.6341,-1.7578 2.16797,-3.24218 z m -11.54297,-5.6836 11.58203,0 c -0.15627,-1.74477 -0.59897,-3.05337 -1.32812,-3.92578 -1.11981,-1.35415 -2.57163,-2.03123 -4.35547,-2.03125 -1.6146,2e-5 -2.97202,0.54038 -4.07227,1.6211 -1.10026,1.08074 -1.70899,2.52605 -1.82617,4.33593 z m -18.22485,12.36328 0,-2.61718 c -1.31512,2.05729 -3.24871,3.08593 -5.80078,3.08593 -1.65366,0 -3.17384,-0.45573 -4.56055,-1.36718 -1.38672,-0.91146 -2.46094,-2.18425 -3.22266,-3.81836 -0.76172,-1.63411 -1.14258,-3.51236 -1.14258,-5.63477 0,-2.0703 0.34505,-3.94855 1.03516,-5.63476 0.6901,-1.68618 1.72526,-2.9785 3.10547,-3.87696 1.3802,-0.89841 2.92317,-1.34763 4.62891,-1.34765 1.24998,2e-5 2.36326,0.26369 3.33984,0.79101 0.97655,0.52737 1.77082,1.21421 2.38281,2.06055 l 0,-10.27344 3.4961,0 0,28.63281 z m -11.11328,-10.35156 c -10e-6,2.65626 0.55989,4.64193 1.67968,5.95703 1.11979,1.31511 2.4414,1.97266 3.96485,1.97266 1.53644,0 2.84178,-0.62825 3.91601,-1.88477 1.07421,-1.2565 1.61131,-3.17382 1.61133,-5.75195 -2e-5,-2.83853 -0.54689,-4.92186 -1.64062,-6.25 -1.09377,-1.32811 -2.44142,-1.99217 -4.04297,-1.99219 -1.56251,2e-5 -2.86785,0.63804 -3.91602,1.91407 -1.04818,1.27605 -1.57227,3.28777 -1.57226,6.03515 z m -17.99048,-14.23828 0,-4.04297 3.51562,0 0,4.04297 z m 0,24.58984 0,-20.74218 3.51562,0 0,20.74218 z m -34.80909,0 0,-4.0039 4.00391,0 0,4.0039 c -10e-6,1.47136 -0.26042,2.65951 -0.78125,3.56446 -0.52084,0.90494 -1.34766,1.60481 -2.48047,2.09961 l -0.97656,-1.50391 c 0.74218,-0.32552 1.28906,-0.80404 1.64062,-1.43555 0.35156,-0.63151 0.54687,-1.53971 0.58594,-2.72461 z m -16.40841,-2.55859 c -1.3021,1.10677 -2.55535,1.88802 -3.75977,2.34375 -1.20444,0.45573 -2.49675,0.68359 -3.87695,0.68359 -2.27865,0 -4.02995,-0.55664 -5.25391,-1.66992 -1.22396,-1.11328 -1.83594,-2.5358 -1.83593,-4.26758 -10e-6,-1.01561 0.23111,-1.94335 0.69335,-2.7832 0.46224,-0.83983 1.06771,-1.51366 1.81641,-2.02148 0.74869,-0.50781 1.59179,-0.89192 2.5293,-1.15235 0.6901,-0.18228 1.73176,-0.35806 3.125,-0.52734 2.83853,-0.33853 4.92837,-0.74218 6.26953,-1.21094 0.013,-0.48176 0.0195,-0.78775 0.0195,-0.91797 -2e-5,-1.43227 -0.33205,-2.44139 -0.99609,-3.02734 -0.89845,-0.79425 -2.23309,-1.19139 -4.00391,-1.19141 -1.65365,2e-5 -2.87436,0.28973 -3.66211,0.86914 -0.78777,0.57945 -1.37045,1.60484 -1.74805,3.07618 l -3.4375,-0.46875 c 0.3125,-1.47134 0.82682,-2.65949 1.54297,-3.56446 0.71614,-0.90493 1.7513,-1.60154 3.10547,-2.08984 1.35416,-0.48826 2.92317,-0.7324 4.70703,-0.73242 1.77082,2e-5 3.20962,0.20835 4.31641,0.625 1.10675,0.41668 1.92055,0.94077 2.44141,1.57226 0.52081,0.63153 0.88539,1.42906 1.09375,2.39258 0.11716,0.59897 0.17576,1.6797 0.17578,3.24219 l 0,4.6875 c -2e-5,3.26823 0.0748,5.33529 0.22461,6.20117 0.14972,0.86589 0.44594,1.69596 0.88867,2.49023 l -3.67188,0 c -0.3646,-0.72916 -0.59897,-1.58203 -0.70312,-2.55859 z m -0.29297,-7.85156 c -1.27606,0.52084 -3.19012,0.96355 -5.74219,1.32812 -1.44532,0.20834 -2.46745,0.44272 -3.0664,0.70313 -0.59897,0.26042 -1.06121,0.64128 -1.38672,1.14258 -0.32553,0.5013 -0.48829,1.05794 -0.48828,1.66992 -10e-6,0.9375 0.35481,1.71875 1.06445,2.34375 0.70963,0.625 1.74804,0.9375 3.11523,0.9375 1.35416,0 2.55858,-0.29622 3.61328,-0.88867 1.05468,-0.59245 1.82942,-1.40299 2.32422,-2.43164 0.37759,-0.79427 0.56639,-1.96614 0.56641,-3.51563 z m -42.26782,10.41015 0,-28.63281 3.51562,0 0,10.27344 c 1.64062,-1.90102 3.71093,-2.85154 6.21094,-2.85156 1.53644,2e-5 2.87108,0.30275 4.00391,0.9082 1.13279,0.60549 1.94334,1.44208 2.43164,2.50977 0.48826,1.06772 0.7324,2.6172 0.73242,4.64843 l 0,13.14453 -3.51563,0 0,-13.14453 c -10e-6,-1.75779 -0.38087,-3.03709 -1.14257,-3.83789 -0.76174,-0.80076 -1.83921,-1.20115 -3.23243,-1.20117 -1.04167,2e-5 -2.02149,0.2702 -2.93945,0.81055 -0.91798,0.54038 -1.57227,1.2728 -1.96289,2.19726 -0.39063,0.9245 -0.58594,2.20054 -0.58594,3.82813 l 0,11.34765 z m -13.22486,-7.59765 3.45703,0.44922 c -0.37762,2.38281 -1.34441,4.24805 -2.90039,5.5957 -1.556,1.34766 -3.46681,2.02148 -5.73242,2.02148 -2.83855,0 -5.12045,-0.92773 -6.8457,-2.7832 -1.72526,-1.85546 -2.58789,-4.51497 -2.58789,-7.97851 0,-2.23958 0.37109,-4.19921 1.11328,-5.87891 0.74218,-1.67967 1.87174,-2.93944 3.38867,-3.7793 1.51692,-0.83982 3.16731,-1.25974 4.95117,-1.25976 2.25259,2e-5 4.09504,0.56968 5.52735,1.70898 1.43227,1.13934 2.35024,2.75718 2.7539,4.85352 l -3.41797,0.52734 c -0.32553,-1.39321 -0.9017,-2.44139 -1.72851,-3.14453 -0.82684,-0.70311 -1.82619,-1.05467 -2.99805,-1.05469 -1.77084,2e-5 -3.20964,0.63478 -4.3164,1.9043 -1.10678,1.26954 -1.66017,3.27801 -1.66016,6.02539 -1e-5,2.78646 0.53385,4.8112 1.60156,6.07422 1.0677,1.26302 2.46093,1.89453 4.17969,1.89453 1.3802,0 2.53254,-0.42318 3.45703,-1.26953 0.92446,-0.84635 1.5104,-2.14843 1.75781,-3.90625 z m -28.96701,7.59765 0,-3.04687 c -1.61459,2.34375 -3.8086,3.51562 -6.58203,3.51562 -1.22397,0 -2.36654,-0.23437 -3.42773,-0.70312 -1.06121,-0.46875 -1.84897,-1.05794 -2.36328,-1.76758 -0.51433,-0.70963 -0.87566,-1.57877 -1.08399,-2.60742 -0.14323,-0.6901 -0.21484,-1.78385 -0.21484,-3.28125 l 0,-12.85156 3.51562,0 0,11.5039 c 0,1.83595 0.0716,3.07293 0.21485,3.71094 0.22134,0.92448 0.69009,1.65039 1.40625,2.17773 0.71613,0.52735 1.60155,0.79102 2.65625,0.79102 1.05467,0 2.04426,-0.27018 2.96875,-0.81055 0.92446,-0.54036 1.57876,-1.27603 1.96289,-2.20703 0.3841,-0.93098 0.57615,-2.28189 0.57617,-4.05273 l 0,-11.11328 3.51562,0 0,20.74218 z m -26.8186,-7.59765 3.45703,0.44922 c -0.37762,2.38281 -1.34442,4.24805 -2.90039,5.5957 -1.556,1.34766 -3.46681,2.02148 -5.73242,2.02148 -2.83855,0 -5.12045,-0.92773 -6.8457,-2.7832 -1.72527,-1.85546 -2.5879,-4.51497 -2.5879,-7.97851 0,-2.23958 0.3711,-4.19921 1.11329,-5.87891 0.74218,-1.67967 1.87174,-2.93944 3.38867,-3.7793 1.51692,-0.83982 3.16731,-1.25974 4.95117,-1.25976 2.25259,2e-5 4.09504,0.56968 5.52734,1.70898 1.43228,1.13934 2.35024,2.75718 2.75391,4.85352 l -3.41797,0.52734 c -0.32554,-1.39321 -0.90171,-2.44139 -1.72851,-3.14453 -0.82684,-0.70311 -1.82619,-1.05467 -2.99805,-1.05469 -1.77084,2e-5 -3.20965,0.63478 -4.31641,1.9043 -1.10677,1.26954 -1.66016,3.27801 -1.66015,6.02539 -10e-6,2.78646 0.53384,4.8112 1.60156,6.07422 1.0677,1.26302 2.46093,1.89453 4.17969,1.89453 1.38019,0 2.53253,-0.42318 3.45703,-1.26953 0.92446,-0.84635 1.5104,-2.14843 1.75781,-3.90625 z m -41.70142,1.40625 3.47657,-0.54688 c 0.1953,1.39324 0.73892,2.46094 1.63086,3.20313 0.89192,0.74219 2.13866,1.11328 3.74023,1.11328 1.61457,0 2.81249,-0.32877 3.59375,-0.98633 0.78124,-0.65755 1.17186,-1.42903 1.17187,-2.31445 -1e-5,-0.79427 -0.34506,-1.41927 -1.03515,-1.875 -0.48179,-0.31249 -1.6797,-0.70963 -3.59375,-1.19141 -2.57813,-0.65103 -4.36524,-1.21418 -5.36133,-1.68945 -0.9961,-0.47525 -1.7513,-1.1328 -2.26562,-1.97266 -0.51433,-0.83983 -0.77149,-1.76756 -0.77149,-2.7832 0,-0.92446 0.21159,-1.78058 0.63477,-2.56836 0.42317,-0.78774 0.99934,-1.44204 1.72851,-1.96289 0.54687,-0.40363 1.29231,-0.74542 2.23633,-1.02539 0.944,-0.27993 1.95637,-0.4199 3.03711,-0.41992 1.62759,2e-5 3.05663,0.23439 4.28711,0.70312 1.23045,0.46877 2.13866,1.10354 2.72461,1.9043 0.58592,0.8008 0.98956,1.87176 1.21094,3.21289 l -3.4375,0.46875 c -0.15627,-1.06769 -0.60874,-1.90103 -1.35743,-2.5 -0.74871,-0.59894 -1.80665,-0.89842 -3.17382,-0.89844 -1.6146,2e-5 -2.76694,0.26695 -3.45704,0.80078 -0.6901,0.53387 -1.03516,1.15887 -1.03515,1.875 -10e-6,0.45575 0.14322,0.8659 0.42969,1.23047 0.28645,0.37762 0.73567,0.69012 1.34765,0.9375 0.35156,0.13022 1.38671,0.4297 3.10547,0.89844 2.48697,0.66407 4.22199,1.20769 5.20508,1.63086 0.98306,0.42319 1.75454,1.03842 2.31445,1.8457 0.55988,0.8073 0.83983,1.8099 0.83985,3.00781 -2e-5,1.17188 -0.34182,2.2754 -1.02539,3.31055 -0.68362,1.03516 -1.66994,1.83594 -2.95899,2.40234 -1.28907,0.56641 -2.74741,0.84961 -4.375,0.84961 -2.69532,0 -4.74935,-0.55989 -6.16211,-1.67968 -1.41276,-1.11979 -2.31445,-2.77995 -2.70508,-4.98047 z m -13.42016,-0.48828 3.63281,0.44922 c -0.57294,2.1224 -1.63413,3.76953 -3.18359,4.9414 -1.5495,1.17188 -3.52866,1.75781 -5.9375,1.75781 -3.03387,0 -5.43946,-0.93424 -7.2168,-2.80273 -1.77735,-1.86849 -2.66602,-4.48893 -2.66602,-7.86133 0,-3.48957 0.89844,-6.1979 2.69532,-8.125 1.79687,-1.92706 4.12759,-2.8906 6.99218,-2.89062 2.77343,2e-5 5.03905,0.94403 6.79688,2.83203 1.75779,1.88803 2.6367,4.54428 2.63672,7.96875 -2e-5,0.20834 -0.007,0.52084 -0.0195,0.9375 l -15.46875,0 c 0.1302,2.27865 0.77473,4.02344 1.93359,5.23437 1.15885,1.21094 2.60416,1.81641 4.33594,1.81641 1.28905,0 2.38931,-0.33854 3.30078,-1.01563 0.91144,-0.67708 1.6341,-1.7578 2.16797,-3.24218 z m -11.54297,-5.6836 11.58203,0 c -0.15627,-1.74477 -0.59897,-3.05337 -1.32813,-3.92578 -1.1198,-1.35415 -2.57162,-2.03123 -4.35546,-2.03125 -1.6146,2e-5 -2.97202,0.54038 -4.07227,1.6211 -1.10027,1.08074 -1.70899,2.52605 -1.82617,4.33593 z m -37.44577,12.36328 0,-4.0039 4.0039,0 0,4.0039 c 0,1.47136 -0.26042,2.65951 -0.78125,3.56446 -0.52083,0.90494 -1.34766,1.60481 -2.48046,2.09961 l -0.97657,-1.50391 c 0.74219,-0.32552 1.28906,-0.80404 1.64063,-1.43555 0.35156,-0.63151 0.54687,-1.53971 0.58594,-2.72461 z m -16.40845,-2.55859 c -1.3021,1.10677 -2.55535,1.88802 -3.75976,2.34375 -1.20444,0.45573 -2.49676,0.68359 -3.87696,0.68359 -2.27865,0 -4.02995,-0.55664 -5.2539,-1.66992 -1.22396,-1.11328 -1.83594,-2.5358 -1.83594,-4.26758 0,-1.01561 0.23112,-1.94335 0.69336,-2.7832 0.46224,-0.83983 1.0677,-1.51366 1.8164,-2.02148 0.7487,-0.50781 1.5918,-0.89192 2.5293,-1.15235 0.6901,-0.18228 1.73176,-0.35806 3.125,-0.52734 2.83853,-0.33853 4.92837,-0.74218 6.26953,-1.21094 0.013,-0.48176 0.0195,-0.78775 0.0195,-0.91797 -10e-6,-1.43227 -0.33204,-2.44139 -0.99609,-3.02734 -0.89845,-0.79425 -2.23309,-1.19139 -4.00391,-1.19141 -1.65365,2e-5 -2.87435,0.28973 -3.66211,0.86914 -0.78776,0.57945 -1.37044,1.60484 -1.74804,3.07618 l -3.4375,-0.46875 c 0.3125,-1.47134 0.82682,-2.65949 1.54297,-3.56446 0.71614,-0.90493 1.75129,-1.60154 3.10546,-2.08984 1.35416,-0.48826 2.92317,-0.7324 4.70704,-0.73242 1.77082,2e-5 3.20962,0.20835 4.3164,0.625 1.10676,0.41668 1.92056,0.94077 2.44141,1.57226 0.52081,0.63153 0.8854,1.42906 1.09375,2.39258 0.11717,0.59897 0.17576,1.6797 0.17578,3.24219 l 0,4.6875 c -2e-5,3.26823 0.0749,5.33529 0.22461,6.20117 0.14972,0.86589 0.44594,1.69596 0.88867,2.49023 l -3.67187,0 c -0.3646,-0.72916 -0.59898,-1.58203 -0.70313,-2.55859 z m -0.29297,-7.85156 c -1.27605,0.52084 -3.19011,0.96355 -5.74219,1.32812 -1.44532,0.20834 -2.46745,0.44272 -3.0664,0.70313 -0.59897,0.26042 -1.06121,0.64128 -1.38672,1.14258 -0.32553,0.5013 -0.48829,1.05794 -0.48828,1.66992 -1e-5,0.9375 0.35481,1.71875 1.06445,2.34375 0.70963,0.625 1.74804,0.9375 3.11524,0.9375 1.35415,0 2.55858,-0.29622 3.61328,-0.88867 1.05467,-0.59245 1.82941,-1.40299 2.32422,-2.43164 0.37758,-0.79427 0.56639,-1.96614 0.5664,-3.51563 z m -39.02562,10.41015 -3.26172,0 0,-28.63281 3.51562,0 0,10.21485 c 1.48437,-1.86196 3.3789,-2.79295 5.6836,-2.79297 1.27602,2e-5 2.4837,0.25718 3.62304,0.77148 1.13931,0.51434 2.07681,1.237 2.8125,2.16797 0.73566,0.93101 1.31183,2.05405 1.72852,3.36914 0.41664,1.31512 0.62498,2.72137 0.625,4.21875 -2e-5,3.55469 -0.87893,6.30209 -2.63672,8.24219 -1.75783,1.9401 -3.8672,2.91015 -6.32813,2.91015 -2.44792,0 -4.36849,-1.02213 -5.76171,-3.0664 z m -0.0391,-10.52734 c 0,2.48699 0.33854,4.28386 1.01563,5.39063 1.10676,1.80989 2.60416,2.71484 4.49219,2.71484 1.53644,0 2.86456,-0.66732 3.98437,-2.00195 1.11978,-1.33463 1.67967,-3.32356 1.67969,-5.9668 -2e-5,-2.70832 -0.53713,-4.70702 -1.61133,-5.99609 -1.07423,-1.28905 -2.37306,-1.93358 -3.89648,-1.9336 -1.53647,2e-5 -2.8646,0.66734 -3.98438,2.00195 -1.1198,1.33465 -1.67969,3.26499 -1.67969,5.79102 z m -18.69356,7.96875 c -1.3021,1.10677 -2.55536,1.88802 -3.75977,2.34375 -1.20444,0.45573 -2.49675,0.68359 -3.87695,0.68359 -2.27865,0 -4.02995,-0.55664 -5.25391,-1.66992 -1.22396,-1.11328 -1.83594,-2.5358 -1.83594,-4.26758 0,-1.01561 0.23112,-1.94335 0.69336,-2.7832 0.46224,-0.83983 1.06771,-1.51366 1.81641,-2.02148 0.74869,-0.50781 1.59179,-0.89192 2.5293,-1.15235 0.69009,-0.18228 1.73176,-0.35806 3.125,-0.52734 2.83853,-0.33853 4.92837,-0.74218 6.26953,-1.21094 0.013,-0.48176 0.0195,-0.78775 0.0195,-0.91797 -2e-5,-1.43227 -0.33205,-2.44139 -0.99609,-3.02734 -0.89846,-0.79425 -2.23309,-1.19139 -4.00391,-1.19141 -1.65366,2e-5 -2.87436,0.28973 -3.66211,0.86914 -0.78777,0.57945 -1.37045,1.60484 -1.74805,3.07618 l -3.4375,-0.46875 c 0.3125,-1.47134 0.82682,-2.65949 1.54297,-3.56446 0.71614,-0.90493 1.7513,-1.60154 3.10547,-2.08984 1.35416,-0.48826 2.92317,-0.7324 4.70703,-0.73242 1.77082,2e-5 3.20962,0.20835 4.31641,0.625 1.10675,0.41668 1.92055,0.94077 2.4414,1.57226 0.52082,0.63153 0.8854,1.42906 1.09375,2.39258 0.11717,0.59897 0.17577,1.6797 0.17579,3.24219 l 0,4.6875 c -2e-5,3.26823 0.0749,5.33529 0.22461,6.20117 0.14971,0.86589 0.44594,1.69596 0.88867,2.49023 l -3.67188,0 c -0.3646,-0.72916 -0.59897,-1.58203 -0.70312,-2.55859 z m -0.29297,-7.85156 c -1.27606,0.52084 -3.19012,0.96355 -5.74219,1.32812 -1.44532,0.20834 -2.46745,0.44272 -3.06641,0.70313 -0.59896,0.26042 -1.0612,0.64128 -1.38671,1.14258 -0.32553,0.5013 -0.48829,1.05794 -0.48829,1.66992 0,0.9375 0.35482,1.71875 1.06446,2.34375 0.70963,0.625 1.74804,0.9375 3.11523,0.9375 1.35416,0 2.55858,-0.29622 3.61328,-0.88867 1.05468,-0.59245 1.82942,-1.40299 2.32422,-2.43164 0.37759,-0.79427 0.56639,-1.96614 0.56641,-3.51563 z m -33.40063,10.41015 0,-20.74218 3.16406,0 0,3.14453 c 0.80729,-1.47134 1.55273,-2.44139 2.23633,-2.91016 0.68359,-0.46873 1.43554,-0.7031 2.25586,-0.70312 1.18489,2e-5 2.38931,0.37762 3.61328,1.13281 l -1.21094,3.26172 c -0.85938,-0.5078 -1.71876,-0.7617 -2.57812,-0.76172 -0.76824,2e-5 -1.45834,0.23114 -2.07031,0.69336 -0.61199,0.46225 -1.04819,1.10353 -1.3086,1.92383 -0.39063,1.25001 -0.58594,2.6172 -0.58593,4.10156 l 0,10.85937 z m -23.96703,-11.23046 0,-3.35938 12.1289,-0.0195 0,10.625 c -1.862,1.48438 -3.78257,2.60091 -5.76171,3.34961 -1.97919,0.7487 -4.01044,1.12304 -6.09375,1.12305 -2.81252,-10e-6 -5.36785,-0.60222 -7.66602,-1.80665 -2.29818,-1.20442 -4.03321,-2.94595 -5.20508,-5.2246 -1.17188,-2.27864 -1.75781,-4.82421 -1.75781,-7.63672 0,-2.78645 0.58268,-5.38735 1.74805,-7.80274 1.16536,-2.41534 2.84179,-4.20896 5.02929,-5.38086 2.18749,-1.17184 4.70702,-1.75778 7.5586,-1.75781 2.07029,3e-5 3.94203,0.33532 5.61523,1.00586 1.67315,0.6706 2.985,1.60484 3.93555,2.80273 0.95049,1.19794 1.67315,2.76044 2.16797,4.6875 l -3.41797,0.9375 c -0.42971,-1.45831 -0.96357,-2.60414 -1.60156,-3.4375 -0.63805,-0.83331 -1.54951,-1.50062 -2.73438,-2.00195 -1.18491,-0.50128 -2.50002,-0.75193 -3.94531,-0.75195 -1.73179,2e-5 -3.22918,0.2637 -4.49219,0.79101 -1.26303,0.52737 -2.28191,1.22073 -3.05664,2.08008 -0.77475,0.8594 -1.37696,1.80341 -1.80664,2.83203 -0.72917,1.77085 -1.09376,3.69143 -1.09375,5.76172 -1e-5,2.5521 0.43945,4.68751 1.31836,6.40625 0.8789,1.71876 2.15819,2.9948 3.83789,3.82813 1.67967,0.83333 3.46353,1.25 5.35156,1.25 1.64061,0 3.24217,-0.31576 4.80469,-0.94727 1.56248,-0.63151 2.74737,-1.30533 3.55469,-2.02148 l 0,-5.33203 z" />
  </g>
  <g
     transform="translate(-3.36118,-2.73044)"
     style="font-size:40px;font-style:normal;font-weight:normal;line-height:125%;letter-spacing:0px;word-spacing:0px;opacity:1;fill:#ffffff;fill-opacity:1;stroke:none;font-family:Sans"
     id="text3798-4-8">
    <path
       inkscape:connector-curvature="0"
       id="path4167-2"
       style="font-variant:normal;font-stretch:normal;letter-spacing:6.76000214000000010px;font-family:Arial;-inkscape-font-specification:Arial;fill:#ffffff;fill-opacity:1"
       d="m 1098.8193,270.95895 0,-4.0039 4.0039,0 0,4.0039 z m -16.4865,-2.55859 c -1.3021,1.10677 -2.5554,1.88802 -3.7598,2.34375 -1.2044,0.45573 -2.4968,0.68359 -3.877,0.68359 -2.2786,0 -4.0299,-0.55664 -5.2539,-1.66992 -1.2239,-1.11328 -1.8359,-2.5358 -1.8359,-4.26758 0,-1.01561 0.2311,-1.94335 0.6934,-2.7832 0.4622,-0.83983 1.0677,-1.51366 1.8164,-2.02148 0.7487,-0.50781 1.5918,-0.89192 2.5293,-1.15235 0.6901,-0.18228 1.7317,-0.35806 3.125,-0.52734 2.8385,-0.33853 4.9283,-0.74218 6.2695,-1.21094 0.013,-0.48176 0.019,-0.78775 0.019,-0.91797 0,-1.43227 -0.332,-2.44139 -0.9961,-3.02734 -0.8984,-0.79425 -2.2331,-1.19139 -4.0039,-1.19141 -1.6536,2e-5 -2.8743,0.28973 -3.6621,0.86914 -0.7878,0.57945 -1.3704,1.60484 -1.748,3.07618 l -3.4375,-0.46875 c 0.3125,-1.47134 0.8268,-2.65949 1.5429,-3.56446 0.7162,-0.90493 1.7513,-1.60154 3.1055,-2.08984 1.3542,-0.48826 2.9232,-0.7324 4.707,-0.73242 1.7709,2e-5 3.2097,0.20835 4.3164,0.625 1.1068,0.41668 1.9206,0.94077 2.4415,1.57226 0.5208,0.63153 0.8853,1.42906 1.0937,2.39258 0.1172,0.59897 0.1758,1.6797 0.1758,3.24219 l 0,4.6875 c 0,3.26823 0.075,5.33529 0.2246,6.20117 0.1497,0.86589 0.4459,1.69596 0.8887,2.49023 l -3.6719,0 c -0.3646,-0.72916 -0.599,-1.58203 -0.7031,-2.55859 z m -0.293,-7.85156 c -1.2761,0.52084 -3.1901,0.96355 -5.7422,1.32812 -1.4453,0.20834 -2.4674,0.44272 -3.0664,0.70313 -0.599,0.26042 -1.0612,0.64128 -1.3867,1.14258 -0.3255,0.5013 -0.4883,1.05794 -0.4883,1.66992 0,0.9375 0.3548,1.71875 1.0645,2.34375 0.7096,0.625 1.748,0.9375 3.1152,0.9375 1.3541,0 2.5586,-0.29622 3.6133,-0.88867 1.0546,-0.59245 1.8294,-1.40299 2.3242,-2.43164 0.3776,-0.79427 0.5664,-1.96614 0.5664,-3.51563 z m -26.467,2.8125 3.457,0.44922 c -0.3776,2.38281 -1.3444,4.24805 -2.9004,5.5957 -1.556,1.34766 -3.4668,2.02148 -5.7324,2.02148 -2.8386,0 -5.1205,-0.92773 -6.8457,-2.7832 -1.7253,-1.85546 -2.5879,-4.51497 -2.5879,-7.97851 0,-2.23958 0.3711,-4.19921 1.1133,-5.87891 0.7421,-1.67967 1.8717,-2.93944 3.3886,-3.7793 1.517,-0.83982 3.1673,-1.25974 4.9512,-1.25976 2.2526,2e-5 4.095,0.56968 5.5273,1.70898 1.4323,1.13934 2.3503,2.75718 2.754,4.85352 l -3.418,0.52734 c -0.3256,-1.39321 -0.9017,-2.44139 -1.7285,-3.14453 -0.8269,-0.70311 -1.8262,-1.05467 -2.9981,-1.05469 -1.7708,2e-5 -3.2096,0.63478 -4.3164,1.9043 -1.1068,1.26954 -1.6601,3.27801 -1.6601,6.02539 0,2.78646 0.5338,4.8112 1.6015,6.07422 1.0677,1.26302 2.461,1.89453 4.1797,1.89453 1.3802,0 2.5325,-0.42318 3.457,-1.26953 0.9245,-0.84635 1.5104,-2.14843 1.7579,-3.90625 z m -29.1819,-16.99219 0,-4.04297 3.5156,0 0,4.04297 z m 0,24.58984 0,-20.74218 3.5156,0 0,20.74218 z m -17.0335,0 0,-18.00781 -3.1054,0 0,-2.73437 3.1054,0 0,-2.20703 c 0,-1.39321 0.1237,-2.42836 0.3711,-3.10547 0.3386,-0.91144 0.9343,-1.65037 1.7871,-2.2168 0.8529,-0.56638 2.0475,-0.84958 3.584,-0.84961 0.9896,3e-5 2.0833,0.11722 3.2813,0.35156 l -0.5274,3.06641 c -0.7292,-0.13018 -1.4193,-0.19529 -2.0703,-0.19531 -1.0677,2e-5 -1.8229,0.22789 -2.2656,0.68359 -0.4427,0.45575 -0.6641,1.30862 -0.6641,2.55859 l 0,1.91407 4.043,0 0,2.73437 -4.043,0 0,18.00781 z m -16.48655,-24.58984 0,-4.04297 3.51562,0 0,4.04297 z m 0,24.58984 0,-20.74218 3.51562,0 0,20.74218 z m -10.19745,-3.14453 0.50781,3.10547 c -0.98959,0.20833 -1.87501,0.3125 -2.65625,0.3125 -1.27605,0 -2.26563,-0.20182 -2.96875,-0.60547 -0.70313,-0.40364 -1.19792,-0.93424 -1.48437,-1.59179 -0.28646,-0.65755 -0.42969,-2.04102 -0.42969,-4.15039 l 0,-11.9336 -2.57812,0 0,-2.73437 2.57812,0 0,-5.13672 3.49609,-2.10938 0,7.2461 3.53516,0 0,2.73437 -3.53516,0 0,12.12891 c 0,1.00261 0.0619,1.64714 0.18555,1.93359 0.12369,0.28646 0.32552,0.51433 0.60547,0.6836 0.27994,0.16927 0.68033,0.2539 1.20117,0.2539 0.39062,0 0.90494,-0.0456 1.54297,-0.13672 z m -36.70145,3.14453 0,-20.74218 3.16407,0 0,2.94922 c 1.52343,-2.27863 3.72395,-3.41795 6.60156,-3.41797 1.24999,2e-5 2.39907,0.22463 3.44726,0.67382 1.04817,0.44924 1.83267,1.03844 2.35352,1.76758 0.52082,0.72919 0.8854,1.59507 1.09375,2.59766 0.13019,0.65106 0.19529,1.79038 0.19531,3.41797 l 0,12.7539 -3.51562,0 0,-12.61718 c -2e-5,-1.43228 -0.13674,-2.50324 -0.41016,-3.21289 -0.27345,-0.70962 -0.75848,-1.27603 -1.45508,-1.69922 -0.69662,-0.42316 -1.51368,-0.63475 -2.45117,-0.63477 -1.4974,2e-5 -2.78972,0.47528 -3.87695,1.42578 -1.08725,0.95054 -1.63087,2.75392 -1.63086,5.41016 l 0,11.32812 z m -14.82638,-6.67968 3.63281,0.44922 c -0.57294,2.1224 -1.63413,3.76953 -3.18359,4.9414 -1.5495,1.17188 -3.52866,1.75781 -5.9375,1.75781 -3.03386,0 -5.43946,-0.93424 -7.2168,-2.80273 -1.77735,-1.86849 -2.66602,-4.48893 -2.66601,-7.86133 -1e-5,-3.48957 0.89843,-6.1979 2.69531,-8.125 1.79687,-1.92706 4.12759,-2.8906 6.99219,-2.89062 2.77342,2e-5 5.03904,0.94403 6.79687,2.83203 1.75779,1.88803 2.6367,4.54428 2.63672,7.96875 -2e-5,0.20834 -0.007,0.52084 -0.0195,0.9375 l -15.46875,0 c 0.1302,2.27865 0.77473,4.02344 1.93359,5.23437 1.15885,1.21094 2.60416,1.81641 4.33594,1.81641 1.28905,0 2.38931,-0.33854 3.30078,-1.01563 0.91144,-0.67708 1.6341,-1.7578 2.16797,-3.24218 z m -11.54297,-5.6836 11.58203,0 c -0.15627,-1.74477 -0.59897,-3.05337 -1.32812,-3.92578 -1.11981,-1.35415 -2.57163,-2.03123 -4.35547,-2.03125 -1.6146,2e-5 -2.97202,0.54038 -4.07227,1.6211 -1.10026,1.08074 -1.70899,2.52605 -1.82617,4.33593 z m -18.22485,12.36328 0,-2.61718 c -1.31512,2.05729 -3.24871,3.08593 -5.80078,3.08593 -1.65366,0 -3.17384,-0.45573 -4.56055,-1.36718 -1.38672,-0.91146 -2.46094,-2.18425 -3.22266,-3.81836 -0.76172,-1.63411 -1.14258,-3.51236 -1.14258,-5.63477 0,-2.0703 0.34505,-3.94855 1.03516,-5.63476 0.6901,-1.68618 1.72526,-2.9785 3.10547,-3.87696 1.3802,-0.89841 2.92317,-1.34763 4.62891,-1.34765 1.24998,2e-5 2.36326,0.26369 3.33984,0.79101 0.97655,0.52737 1.77082,1.21421 2.38281,2.06055 l 0,-10.27344 3.4961,0 0,28.63281 z m -11.11328,-10.35156 c -10e-6,2.65626 0.55989,4.64193 1.67968,5.95703 1.11979,1.31511 2.4414,1.97266 3.96485,1.97266 1.53644,0 2.84178,-0.62825 3.91601,-1.88477 1.07421,-1.2565 1.61131,-3.17382 1.61133,-5.75195 -2e-5,-2.83853 -0.54689,-4.92186 -1.64062,-6.25 -1.09377,-1.32811 -2.44142,-1.99217 -4.04297,-1.99219 -1.56251,2e-5 -2.86785,0.63804 -3.91602,1.91407 -1.04818,1.27605 -1.57227,3.28777 -1.57226,6.03515 z m -17.99048,-14.23828 0,-4.04297 3.51562,0 0,4.04297 z m 0,24.58984 0,-20.74218 3.51562,0 0,20.74218 z m -34.80909,0 0,-4.0039 4.00391,0 0,4.0039 c -10e-6,1.47136 -0.26042,2.65951 -0.78125,3.56446 -0.52084,0.90494 -1.34766,1.60481 -2.48047,2.09961 l -0.97656,-1.50391 c 0.74218,-0.32552 1.28906,-0.80404 1.64062,-1.43555 0.35156,-0.63151 0.54687,-1.53971 0.58594,-2.72461 z m -16.40841,-2.55859 c -1.3021,1.10677 -2.55535,1.88802 -3.75977,2.34375 -1.20444,0.45573 -2.49675,0.68359 -3.87695,0.68359 -2.27865,0 -4.02995,-0.55664 -5.25391,-1.66992 -1.22396,-1.11328 -1.83594,-2.5358 -1.83593,-4.26758 -10e-6,-1.01561 0.23111,-1.94335 0.69335,-2.7832 0.46224,-0.83983 1.06771,-1.51366 1.81641,-2.02148 0.74869,-0.50781 1.59179,-0.89192 2.5293,-1.15235 0.6901,-0.18228 1.73176,-0.35806 3.125,-0.52734 2.83853,-0.33853 4.92837,-0.74218 6.26953,-1.21094 0.013,-0.48176 0.0195,-0.78775 0.0195,-0.91797 -2e-5,-1.43227 -0.33205,-2.44139 -0.99609,-3.02734 -0.89845,-0.79425 -2.23309,-1.19139 -4.00391,-1.19141 -1.65365,2e-5 -2.87436,0.28973 -3.66211,0.86914 -0.78777,0.57945 -1.37045,1.60484 -1.74805,3.07618 l -3.4375,-0.46875 c 0.3125,-1.47134 0.82682,-2.65949 1.54297,-3.56446 0.71614,-0.90493 1.7513,-1.60154 3.10547,-2.08984 1.35416,-0.48826 2.92317,-0.7324 4.70703,-0.73242 1.77082,2e-5 3.20962,0.20835 4.31641,0.625 1.10675,0.41668 1.92055,0.94077 2.44141,1.57226 0.52081,0.63153 0.88539,1.42906 1.09375,2.39258 0.11716,0.59897 0.17576,1.6797 0.17578,3.24219 l 0,4.6875 c -2e-5,3.26823 0.0748,5.33529 0.22461,6.20117 0.14972,0.86589 0.44594,1.69596 0.88867,2.49023 l -3.67188,0 c -0.3646,-0.72916 -0.59897,-1.58203 -0.70312,-2.55859 z m -0.29297,-7.85156 c -1.27606,0.52084 -3.19012,0.96355 -5.74219,1.32812 -1.44532,0.20834 -2.46745,0.44272 -3.0664,0.70313 -0.59897,0.26042 -1.06121,0.64128 -1.38672,1.14258 -0.32553,0.5013 -0.48829,1.05794 -0.48828,1.66992 -10e-6,0.9375 0.35481,1.71875 1.06445,2.34375 0.70963,0.625 1.74804,0.9375 3.11523,0.9375 1.35416,0 2.55858,-0.29622 3.61328,-0.88867 1.05468,-0.59245 1.82942,-1.40299 2.32422,-2.43164 0.37759,-0.79427 0.56639,-1.96614 0.56641,-3.51563 z m -42.26782,10.41015 0,-28.63281 3.51562,0 0,10.27344 c 1.64062,-1.90102 3.71093,-2.85154 6.21094,-2.85156 1.53644,2e-5 2.87108,0.30275 4.00391,0.9082 1.13279,0.60549 1.94334,1.44208 2.43164,2.50977 0.48826,1.06772 0.7324,2.6172 0.73242,4.64843 l 0,13.14453 -3.51563,0 0,-13.14453 c -10e-6,-1.75779 -0.38087,-3.03709 -1.14257,-3.83789 -0.76174,-0.80076 -1.83921,-1.20115 -3.23243,-1.20117 -1.04167,2e-5 -2.02149,0.2702 -2.93945,0.81055 -0.91798,0.54038 -1.57227,1.2728 -1.96289,2.19726 -0.39063,0.9245 -0.58594,2.20054 -0.58594,3.82813 l 0,11.34765 z m -13.22486,-7.59765 3.45703,0.44922 c -0.37762,2.38281 -1.34441,4.24805 -2.90039,5.5957 -1.556,1.34766 -3.46681,2.02148 -5.73242,2.02148 -2.83855,0 -5.12045,-0.92773 -6.8457,-2.7832 -1.72526,-1.85546 -2.58789,-4.51497 -2.58789,-7.97851 0,-2.23958 0.37109,-4.19921 1.11328,-5.87891 0.74218,-1.67967 1.87174,-2.93944 3.38867,-3.7793 1.51692,-0.83982 3.16731,-1.25974 4.95117,-1.25976 2.25259,2e-5 4.09504,0.56968 5.52735,1.70898 1.43227,1.13934 2.35024,2.75718 2.7539,4.85352 l -3.41797,0.52734 c -0.32553,-1.39321 -0.9017,-2.44139 -1.72851,-3.14453 -0.82684,-0.70311 -1.82619,-1.05467 -2.99805,-1.05469 -1.77084,2e-5 -3.20964,0.63478 -4.3164,1.9043 -1.10678,1.26954 -1.66017,3.27801 -1.66016,6.02539 -1e-5,2.78646 0.53385,4.8112 1.60156,6.07422 1.0677,1.26302 2.46093,1.89453 4.17969,1.89453 1.3802,0 2.53254,-0.42318 3.45703,-1.26953 0.92446,-0.84635 1.5104,-2.14843 1.75781,-3.90625 z m -28.96701,7.59765 0,-3.04687 c -1.61459,2.34375 -3.8086,3.51562 -6.58203,3.51562 -1.22397,0 -2.36654,-0.23437 -3.42773,-0.70312 -1.06121,-0.46875 -1.84897,-1.05794 -2.36328,-1.76758 -0.51433,-0.70963 -0.87566,-1.57877 -1.08399,-2.60742 -0.14323,-0.6901 -0.21484,-1.78385 -0.21484,-3.28125 l 0,-12.85156 3.51562,0 0,11.5039 c 0,1.83595 0.0716,3.07293 0.21485,3.71094 0.22134,0.92448 0.69009,1.65039 1.40625,2.17773 0.71613,0.52735 1.60155,0.79102 2.65625,0.79102 1.05467,0 2.04426,-0.27018 2.96875,-0.81055 0.92446,-0.54036 1.57876,-1.27603 1.96289,-2.20703 0.3841,-0.93098 0.57615,-2.28189 0.57617,-4.05273 l 0,-11.11328 3.51562,0 0,20.74218 z m -26.8186,-7.59765 3.45703,0.44922 c -0.37762,2.38281 -1.34442,4.24805 -2.90039,5.5957 -1.556,1.34766 -3.46681,2.02148 -5.73242,2.02148 -2.83855,0 -5.12045,-0.92773 -6.8457,-2.7832 -1.72527,-1.85546 -2.5879,-4.51497 -2.5879,-7.97851 0,-2.23958 0.3711,-4.19921 1.11329,-5.87891 0.74218,-1.67967 1.87174,-2.93944 3.38867,-3.7793 1.51692,-0.83982 3.16731,-1.25974 4.95117,-1.25976 2.25259,2e-5 4.09504,0.56968 5.52734,1.70898 1.43228,1.13934 2.35024,2.75718 2.75391,4.85352 l -3.41797,0.52734 c -0.32554,-1.39321 -0.90171,-2.44139 -1.72851,-3.14453 -0.82684,-0.70311 -1.82619,-1.05467 -2.99805,-1.05469 -1.77084,2e-5 -3.20965,0.63478 -4.31641,1.9043 -1.10677,1.26954 -1.66016,3.27801 -1.66015,6.02539 -10e-6,2.78646 0.53384,4.8112 1.60156,6.07422 1.0677,1.26302 2.46093,1.89453 4.17969,1.89453 1.38019,0 2.53253,-0.42318 3.45703,-1.26953 0.92446,-0.84635 1.5104,-2.14843 1.75781,-3.90625 z m -41.70142,1.40625 3.47657,-0.54688 c 0.1953,1.39324 0.73892,2.46094 1.63086,3.20313 0.89192,0.74219 2.13866,1.11328 3.74023,1.11328 1.61457,0 2.81249,-0.32877 3.59375,-0.98633 0.78124,-0.65755 1.17186,-1.42903 1.17187,-2.31445 -1e-5,-0.79427 -0.34506,-1.41927 -1.03515,-1.875 -0.48179,-0.31249 -1.6797,-0.70963 -3.59375,-1.19141 -2.57813,-0.65103 -4.36524,-1.21418 -5.36133,-1.68945 -0.9961,-0.47525 -1.7513,-1.1328 -2.26562,-1.97266 -0.51433,-0.83983 -0.77149,-1.76756 -0.77149,-2.7832 0,-0.92446 0.21159,-1.78058 0.63477,-2.56836 0.42317,-0.78774 0.99934,-1.44204 1.72851,-1.96289 0.54687,-0.40363 1.29231,-0.74542 2.23633,-1.02539 0.944,-0.27993 1.95637,-0.4199 3.03711,-0.41992 1.62759,2e-5 3.05663,0.23439 4.28711,0.70312 1.23045,0.46877 2.13866,1.10354 2.72461,1.9043 0.58592,0.8008 0.98956,1.87176 1.21094,3.21289 l -3.4375,0.46875 c -0.15627,-1.06769 -0.60874,-1.90103 -1.35743,-2.5 -0.74871,-0.59894 -1.80665,-0.89842 -3.17382,-0.89844 -1.6146,2e-5 -2.76694,0.26695 -3.45704,0.80078 -0.6901,0.53387 -1.03516,1.15887 -1.03515,1.875 -10e-6,0.45575 0.14322,0.8659 0.42969,1.23047 0.28645,0.37762 0.73567,0.69012 1.34765,0.9375 0.35156,0.13022 1.38671,0.4297 3.10547,0.89844 2.48697,0.66407 4.22199,1.20769 5.20508,1.63086 0.98306,0.42319 1.75454,1.03842 2.31445,1.8457 0.55988,0.8073 0.83983,1.8099 0.83985,3.00781 -2e-5,1.17188 -0.34182,2.2754 -1.02539,3.31055 -0.68362,1.03516 -1.66994,1.83594 -2.95899,2.40234 -1.28907,0.56641 -2.74741,0.84961 -4.375,0.84961 -2.69532,0 -4.74935,-0.55989 -6.16211,-1.67968 -1.41276,-1.11979 -2.31445,-2.77995 -2.70508,-4.98047 z m -13.42016,-0.48828 3.63281,0.44922 c -0.57294,2.1224 -1.63413,3.76953 -3.18359,4.9414 -1.5495,1.17188 -3.52866,1.75781 -5.9375,1.75781 -3.03387,0 -5.43946,-0.93424 -7.2168,-2.80273 -1.77735,-1.86849 -2.66602,-4.48893 -2.66602,-7.86133 0,-3.48957 0.89844,-6.1979 2.69532,-8.125 1.79687,-1.92706 4.12759,-2.8906 6.99218,-2.89062 2.77343,2e-5 5.03905,0.94403 6.79688,2.83203 1.75779,1.88803 2.6367,4.54428 2.63672,7.96875 -2e-5,0.20834 -0.007,0.52084 -0.0195,0.9375 l -15.46875,0 c 0.1302,2.27865 0.77473,4.02344 1.93359,5.23437 1.15885,1.21094 2.60416,1.81641 4.33594,1.81641 1.28905,0 2.38931,-0.33854 3.30078,-1.01563 0.91144,-0.67708 1.6341,-1.7578 2.16797,-3.24218 z m -11.54297,-5.6836 11.58203,0 c -0.15627,-1.74477 -0.59897,-3.05337 -1.32813,-3.92578 -1.1198,-1.35415 -2.57162,-2.03123 -4.35546,-2.03125 -1.6146,2e-5 -2.97202,0.54038 -4.07227,1.6211 -1.10027,1.08074 -1.70899,2.52605 -1.82617,4.33593 z m -37.44577,12.36328 0,-4.0039 4.0039,0 0,4.0039 c 0,1.47136 -0.26042,2.65951 -0.78125,3.56446 -0.52083,0.90494 -1.34766,1.60481 -2.48046,2.09961 l -0.97657,-1.50391 c 0.74219,-0.32552 1.28906,-0.80404 1.64063,-1.43555 0.35156,-0.63151 0.54687,-1.53971 0.58594,-2.72461 z m -16.40845,-2.55859 c -1.3021,1.10677 -2.55535,1.88802 -3.75976,2.34375 -1.20444,0.45573 -2.49676,0.68359 -3.87696,0.68359 -2.27865,0 -4.02995,-0.55664 -5.2539,-1.66992 -1.22396,-1.11328 -1.83594,-2.5358 -1.83594,-4.26758 0,-1.01561 0.23112,-1.94335 0.69336,-2.7832 0.46224,-0.83983 1.0677,-1.51366 1.8164,-2.02148 0.7487,-0.50781 1.5918,-0.89192 2.5293,-1.15235 0.6901,-0.18228 1.73176,-0.35806 3.125,-0.52734 2.83853,-0.33853 4.92837,-0.74218 6.26953,-1.21094 0.013,-0.48176 0.0195,-0.78775 0.0195,-0.91797 -10e-6,-1.43227 -0.33204,-2.44139 -0.99609,-3.02734 -0.89845,-0.79425 -2.23309,-1.19139 -4.00391,-1.19141 -1.65365,2e-5 -2.87435,0.28973 -3.66211,0.86914 -0.78776,0.57945 -1.37044,1.60484 -1.74804,3.07618 l -3.4375,-0.46875 c 0.3125,-1.47134 0.82682,-2.65949 1.54297,-3.56446 0.71614,-0.90493 1.75129,-1.60154 3.10546,-2.08984 1.35416,-0.48826 2.92317,-0.7324 4.70704,-0.73242 1.77082,2e-5 3.20962,0.20835 4.3164,0.625 1.10676,0.41668 1.92056,0.94077 2.44141,1.57226 0.52081,0.63153 0.8854,1.42906 1.09375,2.39258 0.11717,0.59897 0.17576,1.6797 0.17578,3.24219 l 0,4.6875 c -2e-5,3.26823 0.0749,5.33529 0.22461,6.20117 0.14972,0.86589 0.44594,1.69596 0.88867,2.49023 l -3.67187,0 c -0.3646,-0.72916 -0.59898,-1.58203 -0.70313,-2.55859 z m -0.29297,-7.85156 c -1.27605,0.52084 -3.19011,0.96355 -5.74219,1.32812 -1.44532,0.20834 -2.46745,0.44272 -3.0664,0.70313 -0.59897,0.26042 -1.06121,0.64128 -1.38672,1.14258 -0.32553,0.5013 -0.48829,1.05794 -0.48828,1.66992 -1e-5,0.9375 0.35481,1.71875 1.06445,2.34375 0.70963,0.625 1.74804,0.9375 3.11524,0.9375 1.35415,0 2.55858,-0.29622 3.61328,-0.88867 1.05467,-0.59245 1.82941,-1.40299 2.32422,-2.43164 0.37758,-0.79427 0.56639,-1.96614 0.5664,-3.51563 z m -39.02562,10.41015 -3.26172,0 0,-28.63281 3.51562,0 0,10.21485 c 1.48437,-1.86196 3.3789,-2.79295 5.6836,-2.79297 1.27602,2e-5 2.4837,0.25718 3.62304,0.77148 1.13931,0.51434 2.07681,1.237 2.8125,2.16797 0.73566,0.93101 1.31183,2.05405 1.72852,3.36914 0.41664,1.31512 0.62498,2.72137 0.625,4.21875 -2e-5,3.55469 -0.87893,6.30209 -2.63672,8.24219 -1.75783,1.9401 -3.8672,2.91015 -6.32813,2.91015 -2.44792,0 -4.36849,-1.02213 -5.76171,-3.0664 z m -0.0391,-10.52734 c 0,2.48699 0.33854,4.28386 1.01563,5.39063 1.10676,1.80989 2.60416,2.71484 4.49219,2.71484 1.53644,0 2.86456,-0.66732 3.98437,-2.00195 1.11978,-1.33463 1.67967,-3.32356 1.67969,-5.9668 -2e-5,-2.70832 -0.53713,-4.70702 -1.61133,-5.99609 -1.07423,-1.28905 -2.37306,-1.93358 -3.89648,-1.9336 -1.53647,2e-5 -2.8646,0.66734 -3.98438,2.00195 -1.1198,1.33465 -1.67969,3.26499 -1.67969,5.79102 z m -18.69356,7.96875 c -1.3021,1.10677 -2.55536,1.88802 -3.75977,2.34375 -1.20444,0.45573 -2.49675,0.68359 -3.87695,0.68359 -2.27865,0 -4.02995,-0.55664 -5.25391,-1.66992 -1.22396,-1.11328 -1.83594,-2.5358 -1.83594,-4.26758 0,-1.01561 0.23112,-1.94335 0.69336,-2.7832 0.46224,-0.83983 1.06771,-1.51366 1.81641,-2.02148 0.74869,-0.50781 1.59179,-0.89192 2.5293,-1.15235 0.69009,-0.18228 1.73176,-0.35806 3.125,-0.52734 2.83853,-0.33853 4.92837,-0.74218 6.26953,-1.21094 0.013,-0.48176 0.0195,-0.78775 0.0195,-0.91797 -2e-5,-1.43227 -0.33205,-2.44139 -0.99609,-3.02734 -0.89846,-0.79425 -2.23309,-1.19139 -4.00391,-1.19141 -1.65366,2e-5 -2.87436,0.28973 -3.66211,0.86914 -0.78777,0.57945 -1.37045,1.60484 -1.74805,3.07618 l -3.4375,-0.46875 c 0.3125,-1.47134 0.82682,-2.65949 1.54297,-3.56446 0.71614,-0.90493 1.7513,-1.60154 3.10547,-2.08984 1.35416,-0.48826 2.92317,-0.7324 4.70703,-0.73242 1.77082,2e-5 3.20962,0.20835 4.31641,0.625 1.10675,0.41668 1.92055,0.94077 2.4414,1.57226 0.52082,0.63153 0.8854,1.42906 1.09375,2.39258 0.11717,0.59897 0.17577,1.6797 0.17579,3.24219 l 0,4.6875 c -2e-5,3.26823 0.0749,5.33529 0.22461,6.20117 0.14971,0.86589 0.44594,1.69596 0.88867,2.49023 l -3.67188,0 c -0.3646,-0.72916 -0.59897,-1.58203 -0.70312,-2.55859 z m -0.29297,-7.85156 c -1.27606,0.52084 -3.19012,0.96355 -5.74219,1.32812 -1.44532,0.20834 -2.46745,0.44272 -3.06641,0.70313 -0.59896,0.26042 -1.0612,0.64128 -1.38671,1.14258 -0.32553,0.5013 -0.48829,1.05794 -0.48829,1.66992 0,0.9375 0.35482,1.71875 1.06446,2.34375 0.70963,0.625 1.74804,0.9375 3.11523,0.9375 1.35416,0 2.55858,-0.29622 3.61328,-0.88867 1.05468,-0.59245 1.82942,-1.40299 2.32422,-2.43164 0.37759,-0.79427 0.56639,-1.96614 0.56641,-3.51563 z m -33.40063,10.41015 0,-20.74218 3.16406,0 0,3.14453 c 0.80729,-1.47134 1.55273,-2.44139 2.23633,-2.91016 0.68359,-0.46873 1.43554,-0.7031 2.25586,-0.70312 1.18489,2e-5 2.38931,0.37762 3.61328,1.13281 l -1.21094,3.26172 c -0.85938,-0.5078 -1.71876,-0.7617 -2.57812,-0.76172 -0.76824,2e-5 -1.45834,0.23114 -2.07031,0.69336 -0.61199,0.46225 -1.04819,1.10353 -1.3086,1.92383 -0.39063,1.25001 -0.58594,2.6172 -0.58593,4.10156 l 0,10.85937 z m -23.96703,-11.23046 0,-3.35938 12.1289,-0.0195 0,10.625 c -1.862,1.48438 -3.78257,2.60091 -5.76171,3.34961 -1.97919,0.7487 -4.01044,1.12304 -6.09375,1.12305 -2.81252,-10e-6 -5.36785,-0.60222 -7.66602,-1.80665 -2.29818,-1.20442 -4.03321,-2.94595 -5.20508,-5.2246 -1.17188,-2.27864 -1.75781,-4.82421 -1.75781,-7.63672 0,-2.78645 0.58268,-5.38735 1.74805,-7.80274 1.16536,-2.41534 2.84179,-4.20896 5.02929,-5.38086 2.18749,-1.17184 4.70702,-1.75778 7.5586,-1.75781 2.07029,3e-5 3.94203,0.33532 5.61523,1.00586 1.67315,0.6706 2.985,1.60484 3.93555,2.80273 0.95049,1.19794 1.67315,2.76044 2.16797,4.6875 l -3.41797,0.9375 c -0.42971,-1.45831 -0.96357,-2.60414 -1.60156,-3.4375 -0.63805,-0.83331 -1.54951,-1.50062 -2.73438,-2.00195 -1.18491,-0.50128 -2.50002,-0.75193 -3.94531,-0.75195 -1.73179,2e-5 -3.22918,0.2637 -4.49219,0.79101 -1.26303,0.52737 -2.28191,1.22073 -3.05664,2.08008 -0.77475,0.8594 -1.37696,1.80341 -1.80664,2.83203 -0.72917,1.77085 -1.09376,3.69143 -1.09375,5.76172 -1e-5,2.5521 0.43945,4.68751 1.31836,6.40625 0.8789,1.71876 2.15819,2.9948 3.83789,3.82813 1.67967,0.83333 3.46353,1.25 5.35156,1.25 1.64061,0 3.24217,-0.31576 4.80469,-0.94727 1.56248,-0.63151 2.74737,-1.30533 3.55469,-2.02148 l 0,-5.33203 z" />
  </g>
</svg>
